<svg width="170" height="166" viewBox="0 0 170 166" fill="none" xmlns="http://www.w3.org/2000/svg">
<g filter="url(#filter0_dddd_3_108)">
<path fill-rule="evenodd" clip-rule="evenodd" d="M157 110.2C157 114.68 157 116.921 156.128 118.632C155.361 120.137 154.137 121.361 152.632 122.128C150.921 123 148.68 123 144.2 123H25.8C21.3196 123 19.0794 123 17.3681 122.128C15.8628 121.361 14.6389 120.137 13.8719 118.632C13 116.921 13 114.68 13 110.2V33.8504C13 31.3458 13 30.0935 13.3452 28.9568C13.6508 27.9505 14.1518 27.0143 14.8196 26.2018C15.5739 25.284 16.6159 24.5894 18.6998 23.2001L45.7754 5.14976C46.9739 4.35071 47.5732 3.95118 48.2216 3.66815C48.7971 3.41693 49.4001 3.23434 50.0183 3.12415C50.7148 3 51.435 3 52.8755 3H117.124C118.565 3 119.285 3 119.982 3.12415C120.6 3.23434 121.203 3.41693 121.778 3.66815C122.427 3.95118 123.026 4.35071 124.225 5.14976L151.3 23.2001C153.384 24.5894 154.426 25.284 155.18 26.2018C155.848 27.0143 156.349 27.9505 156.655 28.9568C157 30.0935 157 31.3458 157 33.8503V110.2Z" fill="url(#paint0_linear_3_108)"/>
<path fill-rule="evenodd" clip-rule="evenodd" d="M157 110.2C157 114.68 157 116.921 156.128 118.632C155.361 120.137 154.137 121.361 152.632 122.128C150.921 123 148.68 123 144.2 123H25.8C21.3196 123 19.0794 123 17.3681 122.128C15.8628 121.361 14.6389 120.137 13.8719 118.632C13 116.921 13 114.68 13 110.2V33.8504C13 31.3458 13 30.0935 13.3452 28.9568C13.6508 27.9505 14.1518 27.0143 14.8196 26.2018C15.5739 25.284 16.6159 24.5894 18.6998 23.2001L45.7754 5.14976C46.9739 4.35071 47.5732 3.95118 48.2216 3.66815C48.7971 3.41693 49.4001 3.23434 50.0183 3.12415C50.7148 3 51.435 3 52.8755 3H117.124C118.565 3 119.285 3 119.982 3.12415C120.6 3.23434 121.203 3.41693 121.778 3.66815C122.427 3.95118 123.026 4.35071 124.225 5.14976L151.3 23.2001C153.384 24.5894 154.426 25.284 155.18 26.2018C155.848 27.0143 156.349 27.9505 156.655 28.9568C157 30.0935 157 31.3458 157 33.8503V110.2Z" fill="url(#paint1_linear_3_108)" fill-opacity="0.2" style="mix-blend-mode:overlay"/>
<path d="M144.2 123.5H25.8H25.7767C23.5562 123.5 21.8593 123.5 20.5049 123.389C19.14 123.278 18.079 123.051 17.1411 122.574C15.5417 121.759 14.2414 120.458 13.4264 118.859C12.9486 117.921 12.7222 116.86 12.6107 115.495C12.5 114.141 12.5 112.444 12.5 110.223V110.2V33.8503L12.5 33.7514C12.4999 31.341 12.4999 30.0196 12.8668 28.8115C13.1915 27.7423 13.7238 26.7476 14.4334 25.8843C15.235 24.9089 16.3345 24.176 18.3402 22.839L18.4225 22.7841L45.498 4.73373L45.5443 4.7029C46.6991 3.93301 47.3325 3.5107 48.0215 3.20991C48.633 2.94299 49.2737 2.74899 49.9306 2.6319C50.6707 2.49996 51.432 2.49998 52.82 2.5H52.8755H117.124H117.18C118.568 2.49998 119.329 2.49996 120.069 2.6319C120.726 2.74899 121.367 2.94299 121.978 3.20991C122.668 3.5107 123.301 3.93301 124.456 4.70293L124.502 4.73373L151.578 22.7841L151.66 22.8391C153.666 24.176 154.765 24.9089 155.567 25.8843C156.276 26.7476 156.809 27.7423 157.133 28.8115C157.5 30.0196 157.5 31.3409 157.5 33.7514V33.8503V110.2V110.223C157.5 112.444 157.5 114.141 157.389 115.495C157.278 116.86 157.051 117.921 156.574 118.859C155.759 120.458 154.458 121.759 152.859 122.574C151.921 123.051 150.86 123.278 149.495 123.389C148.141 123.5 146.444 123.5 144.223 123.5H144.2Z" stroke="url(#paint2_linear_3_108)"/>
</g>
<path opacity="0.3" fill-rule="evenodd" clip-rule="evenodd" d="M144.2 122H25.8C23.5433 122 21.9109 121.999 20.627 121.894C19.3549 121.79 18.5132 121.589 17.8221 121.237C16.5049 120.566 15.4341 119.495 14.763 118.178C14.4108 117.487 14.2096 116.645 14.1057 115.373C14.0008 114.089 14 112.457 14 110.2V33.8504C14 31.2836 14.0102 30.2085 14.3021 29.2474C14.5695 28.3669 15.0079 27.5477 15.5922 26.8368C16.2299 26.0609 17.1188 25.456 19.2545 24.0322L46.3301 5.98186C47.5573 5.16373 48.073 4.82421 48.6217 4.58469C49.1252 4.36488 49.6529 4.20511 50.1938 4.10869C50.7832 4.00363 51.4006 4.00006 52.8755 4.00006H117.124C118.599 4.00006 119.217 4.00363 119.806 4.10869C120.347 4.20511 120.875 4.36488 121.378 4.58469C121.927 4.82421 122.443 5.16373 123.67 5.98187L150.745 24.0322C152.881 25.456 153.77 26.0609 154.408 26.8368C154.992 27.5477 155.431 28.3669 155.698 29.2474C155.99 30.2085 156 31.2836 156 33.8504V110.2C156 112.457 155.999 114.089 155.894 115.373C155.79 116.645 155.589 117.487 155.237 118.178C154.566 119.495 153.495 120.566 152.178 121.237C151.487 121.589 150.645 121.79 149.373 121.894C148.089 121.999 146.457 122 144.2 122ZM156.128 118.632C157 116.921 157 114.68 157 110.2V33.8504C157 31.3458 157 30.0936 156.655 28.9568C156.349 27.9505 155.848 27.0143 155.18 26.2019C154.426 25.2841 153.384 24.5895 151.3 23.2002L124.225 5.14975C123.026 4.35075 122.427 3.95123 121.778 3.66821C121.203 3.41699 120.6 3.2344 119.982 3.12421C119.285 3.00006 118.565 3.00006 117.124 3.00006H52.8755C51.435 3.00006 50.7148 3.00006 50.0183 3.12421C49.4001 3.2344 48.7971 3.41699 48.2216 3.66821C47.5733 3.95123 46.974 4.35074 45.7755 5.14973L45.7754 5.14982L18.6998 23.2002C16.6159 24.5895 15.5739 25.2841 14.8196 26.2019C14.1518 27.0143 13.6508 27.9505 13.3452 28.9568C13 30.0936 13 31.3458 13 33.8504V110.2C13 114.68 13 116.921 13.8719 118.632C14.6389 120.137 15.8628 121.361 17.3681 122.128C19.0794 123 21.3196 123 25.8 123H144.2C148.68 123 150.921 123 152.632 122.128C154.137 121.361 155.361 120.137 156.128 118.632Z" fill="#5B21B6" fill-opacity="0.5"/>
<defs>
<filter id="filter0_dddd_3_108" x="-3.05176e-05" y="0" width="170" height="166" filterUnits="userSpaceOnUse" color-interpolation-filters="sRGB">
<feFlood flood-opacity="0" result="BackgroundImageFix"/>
<feColorMatrix in="SourceAlpha" type="matrix" values="0 0 0 0 0 0 0 0 0 0 0 0 0 0 0 0 0 0 127 0" result="hardAlpha"/>
<feOffset dy="2"/>
<feGaussianBlur stdDeviation="2"/>
<feColorMatrix type="matrix" values="0 0 0 0 0.117647 0 0 0 0 0.160784 0 0 0 0 0.231373 0 0 0 0.08 0"/>
<feBlend mode="normal" in2="BackgroundImageFix" result="effect1_dropShadow_3_108"/>
<feColorMatrix in="SourceAlpha" type="matrix" values="0 0 0 0 0 0 0 0 0 0 0 0 0 0 0 0 0 0 127 0" result="hardAlpha"/>
<feOffset dy="8"/>
<feGaussianBlur stdDeviation="4"/>
<feColorMatrix type="matrix" values="0 0 0 0 0.117647 0 0 0 0 0.160784 0 0 0 0 0.231373 0 0 0 0.07 0"/>
<feBlend mode="normal" in2="effect1_dropShadow_3_108" result="effect2_dropShadow_3_108"/>
<feColorMatrix in="SourceAlpha" type="matrix" values="0 0 0 0 0 0 0 0 0 0 0 0 0 0 0 0 0 0 127 0" result="hardAlpha"/>
<feOffset dy="17"/>
<feGaussianBlur stdDeviation="5"/>
<feColorMatrix type="matrix" values="0 0 0 0 0.117647 0 0 0 0 0.160784 0 0 0 0 0.231373 0 0 0 0.04 0"/>
<feBlend mode="normal" in2="effect2_dropShadow_3_108" result="effect3_dropShadow_3_108"/>
<feColorMatrix in="SourceAlpha" type="matrix" values="0 0 0 0 0 0 0 0 0 0 0 0 0 0 0 0 0 0 127 0" result="hardAlpha"/>
<feOffset dy="30"/>
<feGaussianBlur stdDeviation="6"/>
<feColorMatrix type="matrix" values="0 0 0 0 0.117647 0 0 0 0 0.160784 0 0 0 0 0.231373 0 0 0 0.01 0"/>
<feBlend mode="normal" in2="effect3_dropShadow_3_108" result="effect4_dropShadow_3_108"/>
<feBlend mode="normal" in="SourceGraphic" in2="effect4_dropShadow_3_108" result="shape"/>
</filter>
<linearGradient id="paint0_linear_3_108" x1="55" y1="101" x2="113" y2="29" gradientUnits="userSpaceOnUse">
<stop stop-color="#A78BFA"/>
<stop offset="1" stop-color="#EEA1D6"/>
</linearGradient>
<linearGradient id="paint1_linear_3_108" x1="85" y1="3" x2="85" y2="60.5" gradientUnits="userSpaceOnUse">
<stop offset="0.356522" stop-color="#1F0548" stop-opacity="0"/>
<stop offset="0.569565" stop-color="#1F0548"/>
</linearGradient>
<linearGradient id="paint2_linear_3_108" x1="85" y1="123" x2="85" y2="3" gradientUnits="userSpaceOnUse">
<stop stop-color="#475569" stop-opacity="0.06"/>
<stop offset="1" stop-color="#475569" stop-opacity="0"/>
</linearGradient>
</defs>
</svg>
