<svg width="240" height="241" viewBox="0 0 240 241" fill="none" xmlns="http://www.w3.org/2000/svg">
<path d="M199.415 40.6399C186.135 27.3246 168.472 20 149.653 20C130.834 20 113.149 27.3246 99.8904 40.6399L27.9074 112.814C26.2065 114.52 25.2688 116.793 25.2688 119.22C25.2688 121.647 26.2065 123.921 27.9074 125.627C29.6083 127.332 31.8762 128.272 34.2967 128.272C36.7172 128.272 38.9851 127.332 40.686 125.627L112.647 53.4524C133.036 33.0093 166.247 33.0093 186.636 53.4524C207.025 73.9174 207.047 107.195 186.636 127.638L114.675 199.79C111.164 203.311 111.164 209.061 114.675 212.603C116.376 214.308 118.644 215.249 121.064 215.249C123.485 215.249 125.753 214.308 127.454 212.603L199.415 140.451C212.695 127.135 220 109.425 220 90.5562C220 71.6873 212.695 53.9553 199.415 40.6618V40.6399Z" fill="#4169E1"/>
<path d="M189.34 90.5562C189.34 79.9083 185.219 69.9163 177.718 62.4168C162.235 46.8931 137.048 46.8931 121.566 62.4168L25.9447 158.27C24.2438 159.975 23.3061 162.249 23.3061 164.676C23.3061 167.103 24.2438 169.377 25.9447 171.083C27.6456 172.788 29.9135 173.728 32.334 173.728C34.7545 173.728 37.0224 172.788 38.7233 171.083L133.298 76.3663L133.45 76.1914C133.734 75.8634 134.039 75.5136 134.344 75.2075C134.693 74.8576 135.086 74.5297 135.457 74.2017L135.675 74.0049C144.201 66.7678 157.067 67.2926 164.961 75.2075C172.855 83.1223 173.378 95.0384 166.902 103.631L166.836 103.719C166.16 104.593 165.571 105.293 164.961 105.905C164.372 106.495 163.696 107.086 162.736 107.851L69.3395 201.758C67.6386 203.464 66.7009 205.738 66.7009 208.164C66.7009 210.591 67.6386 212.865 69.3395 214.571C71.0404 216.276 73.3083 217.216 75.7288 217.216C78.1493 217.216 80.4172 216.276 82.1181 214.571L177.739 118.696C185.219 111.196 189.362 101.182 189.362 90.5562H189.34Z" fill="#4169E1"/>
<path d="M140.69 110.278C138.291 109.185 136.154 107.72 134.344 105.905C132.534 104.09 131.073 101.948 129.983 99.5425L129.329 98.1213L23.6985 204.032C21.6268 206.109 20.3403 208.733 20.0568 211.4C19.7733 214.112 20.5583 216.539 22.281 218.266C23.7421 219.731 25.8137 220.54 28.0815 220.54C31.069 220.54 34.1219 219.184 36.477 216.823L142.107 110.912L140.69 110.256V110.278Z" fill="#4169E1"/>
</svg>
